# xmcd
#
# Track frame offsets:
#	150
#	23053
#	37497
#	56057
#	69927
#	85475
#	101860
#	116858
#	131267
#	139618
#
# Disc length: 2170 seconds
#
# Revision: 6
# Processed by: cddbd v1.5.2PL0 Copyright (c) Steve Scherf et al.
# Submitted via: EZCDAudioConverter 2.1.7.1
#
DISCID=9108780a
DTITLE=V/A - Harvest Revisited
DYEAR=2011
DGENRE=MOJO
TTITLE0=Doug Paisley - Out On The Weekend
TTITLE1=Kelley Stoltz - Harvest
TTITLE2=Danny and The Champions Of The World - A Man Needs A Maid
TTITLE3=Jane Weaver - Heart Of Gold
TTITLE4=Phosphorescent - Are You Ready For The Country?
TTITLE5=Villagers - Old Man
TTITLE6=Neville Skelly - There's A World
TTITLE7=Smoke Fairies - Alabama
TTITLE8=Sam Amidon - The Needle And The Damage Done
TTITLE9=Chip Taylor - Words (Between The Lines Of Age)
EXTD=
EXTT0=
EXTT1=
EXTT2=
EXTT3=
EXTT4=
EXTT5=
EXTT6=
EXTT7=
EXTT8=
EXTT9=
PLAYORDER=
